<svg width="256" height="256" viewBox="0 0 256 256" fill="none" xmlns="http://www.w3.org/2000/svg">
<rect width="256" height="256" fill="white"/>
<g clip-path="url(#clip0_263_51)">
<path d="M84.4249 94.8996C83.4495 93.8837 82.0925 93.3123 80.6718 93.3123H28L92.3342 158.984C94.3274 161.016 94.3274 164.254 92.3342 166.286L28 232H80.6718C82.0925 232 83.4283 231.429 84.4249 230.413L146.936 166.286C148.908 164.254 148.908 161.037 146.936 159.005L84.4037 94.8996H84.4249Z" fill="black"/>
<path d="M171.575 25.5873C172.55 24.5714 173.908 24 175.307 24H228L163.666 89.672C161.673 91.7037 161.673 94.9418 163.666 96.9735L228 162.667H175.328C173.908 162.667 172.572 162.095 171.575 161.079L109.064 96.9524C107.092 94.9206 107.092 91.7037 109.064 89.672L171.575 25.5873Z" fill="#662D91"/>
</g>
<defs>
<clipPath id="clip0_263_51">
<rect width="200" height="208" fill="white" transform="translate(28 24)"/>
</clipPath>
</defs>
</svg>
